<?xml version="1.0" encoding="iso-8859-1"?>
<!-- Generator: Adobe Illustrator 19.0.0, SVG Export Plug-In . SVG Version: 6.00 Build 0)  -->
<svg version="1.1" id="Capa_1" xmlns="http://www.w3.org/2000/svg" xmlns:xlink="http://www.w3.org/1999/xlink" x="0px" y="0px"
	 viewBox="0 0 60 60" style="enable-background:new 0 0 60 60;" xml:space="preserve">
<g>
	<g fill="white">
		<rect x="11.5" y="43" width="2" height="17"/>
		<path d="M13.5,12h34v17h2V3c0-1.7-1.3-3-3-3h-32c-1.7,0-3,1.3-3,3v26h2V12z M14.5,2h32c0.6,0,1,0.4,1,1v7h-34V3
			C13.5,2.4,13.9,2,14.5,2z"/>
		<rect x="47.5" y="43" width="2" height="17"/>
		<rect x="26.5" y="5" width="8" height="2"/>
		<path d="M57.5,32h-6h-40c-0.2,0-0.5,0.1-0.6,0.2l-8.7,2.9c-0.4,0.1-0.7,0.5-0.7,0.9s0.3,0.8,0.7,0.9l8.7,2.9
			c0.1,0.1,0.3,0.1,0.4,0.2c0.1,0,0.1,0,0.2,0h40h6c0.6,0,1-0.4,1-1v-6C58.5,32.4,58.1,32,57.5,32z M10.5,34.4v3.2L5.7,36L10.5,34.4
			z M12.5,37h35v-2h-35v-1h38v4h-38V37z M56.5,38h-4v-4h4V38z"/>
		<rect x="29.5" y="14" width="2" height="2"/>
		<rect x="29.5" y="18" width="2" height="2"/>
		<rect x="29.5" y="22" width="2" height="2"/>
		<rect x="29.5" y="26" width="2" height="2"/>
		<rect x="23.5" y="50" width="2" height="2"/>
		<rect x="19.5" y="50" width="2" height="2"/>
		<rect x="15.5" y="50" width="2" height="2"/>
		<rect x="27.5" y="50" width="2" height="2"/>
		<rect x="31.5" y="50" width="2" height="2"/>
		<rect x="35.5" y="50" width="2" height="2"/>
		<rect x="39.5" y="50" width="2" height="2"/>
		<rect x="43.5" y="50" width="2" height="2"/>
		<path d="M26.5,16v-2h-10c-0.6,0-1,0.4-1,1v13c0,0.6,0.4,1,1,1h10v-2h-9V16H26.5z"/>
		<path d="M34.5,27v2h10c0.6,0,1-0.4,1-1V15c0-0.6-0.4-1-1-1h-10v2h9v11H34.5z"/>
		<path d="M43.5,58h-26v-4h-2v5c0,0.6,0.4,1,1,1h28c0.6,0,1-0.4,1-1v-5h-2V58z"/>
		<rect x="15.5" y="45" width="30" height="2"/>
	</g>
</g>
<g>
</g>
<g>
</g>
<g>
</g>
<g>
</g>
<g>
</g>
<g>
</g>
<g>
</g>
<g>
</g>
<g>
</g>
<g>
</g>
<g>
</g>
<g>
</g>
<g>
</g>
<g>
</g>
<g>
</g>
</svg>
