<?xml version="1.0" encoding="iso-8859-1"?>
<!-- Generator: Adobe Illustrator 19.0.0, SVG Export Plug-In . SVG Version: 6.00 Build 0)  -->
<svg version="1.1" id="Capa_1" xmlns="http://www.w3.org/2000/svg" xmlns:xlink="http://www.w3.org/1999/xlink" x="0px" y="0px"
	 viewBox="0 0 506.873 506.873" style="enable-background:new 0 0 506.873 506.873;" xml:space="preserve">
<g fill="white">
	<path d="M506.797,434.973l-12.073-193.169c-1.28-20.481-15.474-37.75-35.319-42.973l-106.168-27.939
		c-7.243-1.906-12.301-8.468-12.301-15.957v-5.999h0.5c8.547,0,15.5-6.953,15.5-15.5v-88c0-8.547-6.953-15.5-15.5-15.5h-176
		c-8.547,0-15.5,6.953-15.5,15.5v88c0,8.547,6.953,15.5,15.5,15.5h0.5v5.999c0,7.489-5.058,14.051-12.301,15.957L47.468,198.831
		c-19.845,5.222-34.039,22.492-35.319,42.973L0.076,434.973c-0.678,10.838,3.198,21.594,10.634,29.509s17.929,12.455,28.789,12.455
		h427.875c10.86,0,21.353-4.54,28.789-12.455C503.599,456.567,507.475,445.811,506.797,434.973z M341.936,45.437v88
		c0,0.276-0.224,0.5-0.5,0.5h-16.5v-89h16.5C341.712,44.937,341.936,45.161,341.936,45.437z M292.936,133.937v-89h17v89H292.936z
		 M260.936,133.937v-89h17v89H260.936z M228.936,133.937v-89h17v89H228.936z M196.936,133.937v-89h17v89H196.936z M164.936,133.437
		v-88c0-0.276,0.224-0.5,0.5-0.5h16.5v89h-16.5C165.161,133.937,164.936,133.712,164.936,133.437z M485.23,454.212
		c-4.68,4.981-11.021,7.725-17.856,7.725H39.499c-6.835,0-13.177-2.744-17.856-7.725s-7.022-11.481-6.596-18.303L27.12,242.739
		c0.875-14.013,10.587-25.829,24.166-29.402l106.168-27.939c13.827-3.638,23.483-16.165,23.483-30.463v-5.999h145v5.999
		c0,14.298,9.657,26.825,23.483,30.463l106.168,27.939c13.579,3.573,23.29,15.389,24.166,29.402l12.073,193.169
		C492.253,442.73,489.911,449.23,485.23,454.212z"/>
	<path d="M149.436,316.937h208c4.142,0,7.5-3.358,7.5-7.5s-3.358-7.5-7.5-7.5h-208c-4.142,0-7.5,3.358-7.5,7.5
		S145.294,316.937,149.436,316.937z"/>
	<path d="M333.436,333.937h-160c-4.142,0-7.5,3.358-7.5,7.5s3.358,7.5,7.5,7.5h160c4.142,0,7.5-3.358,7.5-7.5
		S337.579,333.937,333.436,333.937z"/>
	<path d="M465.359,284.969c-0.247-3.953-3.525-7.032-7.485-7.032h-52.938v-8.5c0-8.547-6.953-15.5-15.5-15.5h-272
		c-8.547,0-15.5,6.953-15.5,15.5v8.5H48.999c-3.96,0-7.238,3.08-7.485,7.032l-9.5,152c-0.129,2.066,0.602,4.094,2.019,5.603
		s3.396,2.365,5.466,2.365h427.875c2.07,0,4.049-0.856,5.466-2.365s2.148-3.537,2.019-5.603L465.359,284.969z M117.436,268.937h272
		c0.276,0,0.5,0.224,0.5,0.5v112c0,0.276-0.224,0.5-0.5,0.5h-272c-0.276,0-0.5-0.224-0.5-0.5v-95.932
		c0-0.023,0.003-0.045,0.003-0.068s-0.003-0.045-0.003-0.068v-15.932C116.936,269.161,117.161,268.937,117.436,268.937z
		 M47.482,429.937l8.563-137h45.892v88.5c0,8.547,6.953,15.5,15.5,15.5h272c8.547,0,15.5-6.953,15.5-15.5v-88.5h45.892l8.563,137
		H47.482z"/>
	<path d="M312.063,199.348c1.469,1.502,3.415,2.256,5.363,2.256c1.892,0,3.784-0.711,5.243-2.138
		c2.961-2.896,3.015-7.645,0.119-10.606c-4.946-5.058-8.794-11.25-11.129-17.906c-1.371-3.908-5.649-5.967-9.56-4.595
		c-3.909,1.371-5.966,5.651-4.595,9.56C300.56,184.631,305.595,192.733,312.063,199.348z"/>
	<path d="M341.276,216.344l94.247,24.802c0.64,0.168,1.282,0.249,1.914,0.249c3.324,0,6.362-2.228,7.248-5.593
		c1.054-4.006-1.338-8.107-5.344-9.162l-94.247-24.802c-4.005-1.056-8.108,1.339-9.162,5.344
		C334.878,211.189,337.27,215.29,341.276,216.344z"/>
</g>
<g>
</g>
<g>
</g>
<g>
</g>
<g>
</g>
<g>
</g>
<g>
</g>
<g>
</g>
<g>
</g>
<g>
</g>
<g>
</g>
<g>
</g>
<g>
</g>
<g>
</g>
<g>
</g>
<g>
</g>
</svg>
